# xmcd
#
# Track frame offsets: 
#        300
#        18054
#        36977
#        56306
#        71536
#        89725
#        111944
#        142056
#        164714
#        196819
#        219357
#        237951
#        257682
#        292406
#
# Disc length: 4271 seconds
#
# Revision: 0
# Processed by: cddbd v1.5.2PL0 Copyright (c) Steve Scherf et al.
# Submitted via: ExactAudioCopyFreeDBPlugin 1.0
#
DISCID=d710ab0e
DTITLE=Gary Moore - Ballads and blues (1982-1994)
DYEAR=1994
DGENRE=Blues
TTITLE0=Always gonna love you
TTITLE1=Still got the blues
TTITLE2=Empty rooms
TTITLE3=Parisienne walkways
TTITLE4=One day
TTITLE5=Separate ways
TTITLE6=Story of the blues
TTITLE7=Crying in the shadows
TTITLE8=Withe love (remember)
TTITLE9=Midnight blues
TTITLE10=Falling in love withe you
TTITLE11=Jumpin' at shadows
TTITLE12=Blues for Narada
TTITLE13=Johnny Boy
EXTD=
EXTT0=
EXTT1=
EXTT2=
EXTT3=
EXTT4=
EXTT5=
EXTT6=
EXTT7=
EXTT8=
EXTT9=
EXTT10=
EXTT11=
EXTT12=
EXTT13=
PLAYORDER=
